<svg width="17" height="17" viewBox="0 0 17 17" fill="none" xmlns="http://www.w3.org/2000/svg">
<path d="M8.04799 5.36552C6.56981 5.36552 5.36351 6.57183 5.36351 8.05C5.36351 9.52817 6.56981 10.7345 8.04799 10.7345C9.52616 10.7345 10.7325 9.52817 10.7325 8.05C10.7325 6.57183 9.52616 5.36552 8.04799 5.36552ZM16.0994 8.05C16.0994 6.93835 16.1095 5.83677 16.047 4.72713C15.9846 3.43826 15.6906 2.29439 14.7481 1.3519C13.8036 0.407399 12.6617 0.115389 11.3729 0.0529594C10.2612 -0.00947032 9.15964 0.000599011 8.05 0.000599011C6.93835 0.000599011 5.83677 -0.00947032 4.72713 0.0529594C3.43826 0.115389 2.29439 0.409413 1.3519 1.3519C0.407399 2.2964 0.115389 3.43826 0.0529594 4.72713C-0.00947032 5.83878 0.000599011 6.94036 0.000599011 8.05C0.000599011 9.15964 -0.00947032 10.2632 0.0529594 11.3729C0.115389 12.6617 0.409413 13.8056 1.3519 14.7481C2.2964 15.6926 3.43826 15.9846 4.72713 16.047C5.83878 16.1095 6.94036 16.0994 8.05 16.0994C9.16165 16.0994 10.2632 16.1095 11.3729 16.047C12.6617 15.9846 13.8056 15.6906 14.7481 14.7481C15.6926 13.8036 15.9846 12.6617 16.047 11.3729C16.1115 10.2632 16.0994 9.16165 16.0994 8.05ZM8.04799 12.1804C5.76225 12.1804 3.91756 10.3357 3.91756 8.05C3.91756 5.76427 5.76225 3.91957 8.04799 3.91957C10.3337 3.91957 12.1784 5.76427 12.1784 8.05C12.1784 10.3357 10.3337 12.1804 8.04799 12.1804ZM12.3476 4.71505C11.8139 4.71505 11.3829 4.28408 11.3829 3.75041C11.3829 3.21673 11.8139 2.78577 12.3476 2.78577C12.8813 2.78577 13.3122 3.21673 13.3122 3.75041C13.3124 3.87713 13.2875 4.00264 13.2391 4.11975C13.1907 4.23685 13.1196 4.34326 13.03 4.43287C12.9404 4.52247 12.834 4.59352 12.7169 4.64194C12.5998 4.69036 12.4743 4.71521 12.3476 4.71505Z" fill="white" fill-opacity="0.8"/>
</svg>
