<svg width="14" height="17" viewBox="0 0 14 17" fill="none" xmlns="http://www.w3.org/2000/svg">
<path d="M5.98927e-05 6.07921C5.98927e-05 5.3465 0.128142 4.65429 0.38054 4.00823C0.621686 3.38072 0.979963 2.80479 1.43628 2.31114C1.89166 1.82396 2.41278 1.40269 2.98457 1.05951C3.57122 0.7046 4.20634 0.436846 4.87001 0.264645C5.5417 0.0882688 6.23335 -0.00067938 6.92781 3.90679e-06C8.0005 3.90679e-06 8.99879 0.226973 9.92456 0.679029C10.8382 1.12284 11.6159 1.80393 12.1764 2.65112C12.7546 3.51285 13.0419 4.48759 13.0419 5.57441C13.0419 6.22612 12.9778 6.86371 12.8469 7.48717C12.7184 8.11028 12.5141 8.71532 12.2385 9.2888C11.9759 9.84394 11.6325 10.3571 11.2195 10.8117C10.8044 11.259 10.3018 11.6161 9.74279 11.8608C9.13591 12.1268 8.47941 12.2606 7.81685 12.2535C7.35632 12.2535 6.89673 12.1452 6.44279 11.9277C5.98885 11.7111 5.66299 11.4135 5.4671 11.032C5.39835 11.2967 5.30418 11.679 5.17892 12.1791C5.05837 12.6783 4.97738 13.0004 4.94159 13.1463C4.90392 13.2914 4.83423 13.5334 4.73251 13.8687C4.66354 14.1167 4.57505 14.3589 4.46787 14.5929L4.1439 15.2277C4.00379 15.5001 3.84717 15.7636 3.67489 16.0169C3.50443 16.2636 3.29347 16.5584 3.04202 16.8975L2.90169 16.9474L2.80845 16.8457C2.70768 15.7786 2.65588 15.1401 2.65588 14.9291C2.65588 14.3047 2.73029 13.604 2.8772 12.8261C3.0213 12.0492 3.24921 11.0725 3.55529 9.89813C3.86137 8.72467 4.03654 8.03434 4.08363 7.82998C3.86796 7.39017 3.75871 6.81568 3.75871 6.10934C3.75871 5.54522 3.93482 5.01688 4.28799 4.51961C4.6421 4.02424 5.08945 3.77655 5.63192 3.77655C6.04724 3.77655 6.36933 3.91405 6.60007 4.18999C6.83175 4.46499 6.94476 4.81157 6.94476 5.23443C6.94476 5.68272 6.79596 6.3316 6.49647 7.18015C6.19699 8.02964 6.04818 8.66345 6.04818 9.08443C6.04818 9.51106 6.20075 9.86799 6.50589 10.1477C6.80702 10.4276 7.20525 10.5792 7.61625 10.5706C7.9892 10.5706 8.33483 10.4858 8.65598 10.3153C8.97211 10.1499 9.24574 9.91362 9.45555 9.62501C9.91252 8.99807 10.2383 8.28536 10.4133 7.52955C10.5038 7.13212 10.5734 6.75446 10.6168 6.39941C10.6629 6.04248 10.6827 5.70532 10.6827 5.38511C10.6827 4.21071 10.3097 3.2953 9.56856 2.63982C8.82362 1.98434 7.85358 1.65848 6.66034 1.65848C5.30323 1.65848 4.16839 2.09735 3.25957 2.97792C2.34981 3.85566 1.8921 4.97167 1.8921 6.32501C1.8921 6.62356 1.93731 6.91174 2.02301 7.19051C2.10683 7.46833 2.19818 7.68965 2.29707 7.85352C2.39501 8.01457 2.48731 8.17184 2.57112 8.31688C2.65588 8.46191 2.70015 8.56551 2.70015 8.62767C2.70015 8.81791 2.65023 9.0656 2.54946 9.37167C2.44493 9.67775 2.32155 9.83032 2.17275 9.83032C2.15862 9.83032 2.10023 9.81996 1.99852 9.7983C1.64626 9.69314 1.32814 9.49654 1.07652 9.22852C0.809463 8.95075 0.598707 8.6239 0.455882 8.26602C0.313464 7.90942 0.202538 7.54103 0.124375 7.16508C0.039927 6.80935 -0.00180589 6.44482 5.98927e-05 6.07921Z" fill="white" fill-opacity="0.8"/>
</svg>
