<svg width="17" height="14" viewBox="0 0 17 14" fill="none" xmlns="http://www.w3.org/2000/svg">
<path d="M16.9474 1.63548C16.3241 1.90432 15.6459 2.09781 14.9473 2.17317C15.6726 1.74227 16.2158 1.06153 16.4749 0.258669C15.7943 0.663543 15.0487 0.947447 14.2711 1.09779C13.9462 0.750382 13.5532 0.473622 13.1165 0.284754C12.6799 0.0958861 12.2091 -0.00104235 11.7334 8.45312e-06C9.80874 8.45312e-06 8.26085 1.56012 8.26085 3.47462C8.26085 3.74346 8.29344 4.0123 8.34639 4.27097C5.46446 4.12025 2.89415 2.74344 1.18536 0.635458C0.873999 1.16727 0.710836 1.7728 0.712844 2.38906C0.712844 3.59478 1.32589 4.65794 2.26074 5.2832C1.70982 5.26151 1.1718 5.11008 0.690441 4.84124V4.88401C0.690441 6.57243 1.88395 7.97165 3.47461 8.29345C3.17594 8.37102 2.8687 8.41071 2.56013 8.41157C2.33406 8.41157 2.1202 8.38917 1.90431 8.35862C2.34424 9.73543 3.62532 10.7354 5.15081 10.768C3.95731 11.7029 2.46237 12.2528 0.83912 12.2528C0.547872 12.2528 0.279028 12.2426 0 12.21C1.53974 13.1978 3.36666 13.7681 5.33411 13.7681C11.7212 13.7681 15.2162 8.47675 15.2162 3.88399C15.2162 3.73328 15.2162 3.58256 15.206 3.43185C15.8822 2.93693 16.4749 2.32388 16.9474 1.63548Z" fill="white" fill-opacity="0.8"/>
</svg>
